<svg width="112" height="31" viewBox="0 0 112 31" fill="none" xmlns="http://www.w3.org/2000/svg">
<path d="M16.8184 22.5732H22.5586L14.4997 0.25H8.22445L0.171967 22.5732H5.84638L7.18057 18.63H15.4838L16.8184 22.5732ZM14.0903 14.4325H8.60767L11.329 6.26009L14.0903 14.4325ZM33.1544 15.9271L29.0653 4.8291H23.0081L30.2081 21.969L26.1458 31H31.9849L43.0825 4.8291H37.2167L33.1544 15.9271ZM50.461 14.3371C50.461 11.2844 51.9539 10.394 54.5238 10.394H56.0099V4.63832C53.6318 4.63832 51.6963 5.91031 50.461 7.78644V4.8291H45.0378V22.5732H50.461V14.3371ZM75.9131 13.7011C75.9131 8.07263 71.923 4.57473 66.7178 4.57473C61.5522 4.57473 57.5225 8.07263 57.5225 13.7011C57.5225 19.3296 61.4598 22.8275 66.6585 22.8275C71.8572 22.8275 75.9131 19.3296 75.9131 13.7011ZM63.0451 13.7011C63.0451 10.6802 64.7561 9.28102 66.7178 9.28102C68.6202 9.28102 70.3974 10.6802 70.3974 13.7011C70.3974 16.6903 68.594 18.1213 66.6585 18.1213C64.6899 18.1213 63.0451 16.6903 63.0451 13.7011ZM87.6581 14.4007C87.6581 20.1564 91.397 22.7958 95.9677 22.7958C100.532 22.7958 104.305 20.1564 104.305 14.4007V0.409003H101.418V14.4325C101.418 18.5029 99.2641 20.2518 95.9944 20.2518C92.7312 20.2518 90.5445 18.5029 90.5445 14.4325V0.409003H87.6581V14.4007ZM109.12 22.5732H112V0.409003H109.12V22.5732Z" fill="white"/>
</svg>
