<svg width="109" height="20" viewBox="0 0 109 20" fill="none" xmlns="http://www.w3.org/2000/svg">
<path d="M0.534424 19.9576V0.59668H3.07199V17.4322H11.0016V19.9576H0.534424ZM13.549 4.63721V1.94352H16.0866V4.63721H13.549ZM13.549 19.9576V5.98406H16.0866V19.9576H13.549ZM47.8341 4.63721V1.94352H50.3717V4.63721H47.8341ZM47.8341 19.9576V5.98406H50.3717V19.9576H47.8341ZM30.3298 11.0768C30.2508 10.5297 30.1316 9.9404 29.9334 9.35117C29.7352 8.76194 29.4179 8.21478 29.061 7.70968C28.6646 7.20465 28.1885 6.78374 27.5545 6.48916C26.9197 6.19451 26.1665 6.02612 25.2545 6.02612C24.0654 6.02612 23.0738 6.27871 22.2415 6.82587C21.8451 7.07839 21.5278 7.37297 21.2104 7.70968V6.02612H18.6728V19.9997H21.2104V13.055H21.2499C21.2499 12.2133 21.3296 11.5398 21.5278 10.9505C21.6865 10.3613 21.9241 9.89834 22.2415 9.56162C22.5589 9.22491 22.9151 8.9724 23.3121 8.80401C23.7085 8.63569 24.1444 8.55149 24.6205 8.55149C25.3342 8.55149 25.8893 8.71981 26.3252 9.01446C26.7617 9.30911 27.0784 9.72995 27.3563 10.193C27.594 10.698 27.7527 11.2031 27.8317 11.7923C27.9114 12.3816 27.9509 12.9287 27.9509 13.4759V19.9997H30.528V12.55C30.449 12.1291 30.4095 11.624 30.3298 11.0768ZM94.4103 11.0768C94.3313 10.5297 94.2121 9.9404 94.0139 9.35117C93.8157 8.76194 93.4983 8.21478 93.1415 7.70968C92.7451 7.20465 92.2697 6.78374 91.6349 6.48916C91.0009 6.19451 90.2476 6.02612 89.3357 6.02612C88.1459 6.02612 87.1549 6.27871 86.322 6.82587C85.9256 7.07839 85.6082 7.37297 85.2909 7.70968V6.02612H82.7532V19.9997H85.2909V13.055H85.331C85.331 12.2133 85.4101 11.5398 85.6082 10.9505C85.7669 10.3613 86.0046 9.89834 86.322 9.56162C86.6394 9.22491 86.9962 8.9724 87.3926 8.80401C87.789 8.63569 88.2249 8.55149 88.7009 8.55149C89.4147 8.55149 89.9697 8.71981 90.4056 9.01446C90.8422 9.30911 91.1596 9.72995 91.3973 10.193C91.6349 10.698 91.7936 11.2031 91.8726 11.7923C91.9523 12.3816 91.9918 12.9287 91.9918 13.4759V19.9997H94.569V12.55C94.5295 12.1291 94.49 11.624 94.4103 11.0768ZM44.2563 13.6864H45.5251C45.6041 12.0869 45.4454 10.7401 44.97 9.56162C44.494 8.42523 43.7802 7.49929 42.8683 6.91C41.9169 6.27871 40.7672 5.98406 39.4589 5.98406C38.1901 5.98406 37.0398 6.27871 36.0883 6.86793C35.1369 7.45716 34.3836 8.25684 33.8286 9.35117C33.2735 10.4034 33.0351 11.6661 33.0351 13.0971C33.0351 14.4439 33.313 15.6645 33.8681 16.7168C34.4231 17.769 35.1764 18.5686 36.168 19.1158C37.159 19.705 38.3086 19.9997 39.6169 19.9997C40.8857 19.9997 42.036 19.663 43.1067 19.0316C44.1371 18.4003 44.9306 17.4744 45.4454 16.2958L42.948 15.4962C42.6306 16.1696 42.1545 16.7168 41.5995 17.0535C41.0049 17.4322 40.3307 17.6006 39.5379 17.6006C38.3086 17.6006 37.3966 17.2218 36.7626 16.4221C36.247 15.7487 35.9296 14.8648 35.8506 13.7705H43.1067H44.2563V13.6864ZM36.6434 9.47743C37.2782 8.67775 38.2296 8.25684 39.4984 8.25684C40.648 8.25684 41.5205 8.63569 42.0755 9.35117C42.4719 9.85627 42.7498 10.6138 42.8683 11.5398H35.771C35.9296 10.698 36.247 10.0246 36.6434 9.47743ZM59.0248 19.9576C57.6762 19.9576 56.5266 19.663 55.5752 19.0316C54.623 18.4424 53.9093 17.6006 53.3944 16.5484C52.8789 15.4962 52.6412 14.2756 52.6412 12.9708C52.6412 11.624 52.9184 10.4034 53.4339 9.35117C53.9495 8.29897 54.6632 7.45716 55.6147 6.86793C56.5661 6.27871 57.7157 5.98406 59.0248 5.98406C60.4516 5.98406 61.6809 6.36283 62.712 7.07839C63.7425 7.79387 64.4167 8.80401 64.7341 10.0246L62.1964 10.7401C61.9588 9.98253 61.5222 9.43537 60.9671 9.01446C60.4121 8.59355 59.7385 8.3831 58.9846 8.3831C58.1523 8.3831 57.4781 8.59355 56.923 8.9724C56.3679 9.35117 55.9715 9.89834 55.7339 10.6138C55.456 11.2872 55.3368 12.0869 55.3368 12.9708C55.3368 14.3176 55.6542 15.454 56.2889 16.2958C56.8835 17.1377 57.7954 17.5585 59.0248 17.5585C59.857 17.5585 60.4918 17.348 61.0066 16.9693C61.5222 16.5905 61.9186 16.0433 62.1569 15.3278L64.7341 15.9591C64.2982 17.2639 63.5844 18.2319 62.5928 18.9475C61.6414 19.6209 60.4121 19.9576 59.0248 19.9576ZM73.744 19.9576C72.435 19.9576 71.2854 19.663 70.3339 19.0737C69.3825 18.4844 68.6292 17.6427 68.1137 16.5905C67.5981 15.5382 67.3202 14.3176 67.3202 12.9708C67.3202 11.5819 67.5981 10.3613 68.1137 9.30911C68.6687 8.25684 69.3825 7.45716 70.3734 6.86793C71.3249 6.27871 72.4752 5.98406 73.744 5.98406C75.0523 5.98406 76.2019 6.27871 77.1534 6.86793C78.1055 7.45716 78.8588 8.29897 79.4138 9.35117C79.9294 10.4034 80.2066 11.624 80.2066 12.9708C80.2066 14.3598 79.9294 15.5804 79.4138 16.6326C78.8983 17.6848 78.145 18.4845 77.1534 19.1158C76.1624 19.663 75.0523 19.9576 73.744 19.9576ZM73.744 17.5585C75.0128 17.5585 75.9248 17.1377 76.5588 16.2958C77.1936 15.454 77.5103 14.3598 77.5103 12.9708C77.5103 11.5819 77.1936 10.4876 76.5588 9.64582C75.9248 8.80401 75.0128 8.3831 73.744 8.3831C72.8716 8.3831 72.1973 8.59355 71.6422 8.9724C71.0872 9.35117 70.6908 9.89833 70.4129 10.5718C70.1357 11.2452 70.0165 12.0449 70.0165 12.9287C70.0165 14.3176 70.3339 15.412 70.968 16.2538C71.5632 17.1377 72.5147 17.5585 73.744 17.5585ZM102.786 19.9576C101.2 19.9576 99.8916 19.6209 98.8605 18.9053C97.8695 18.1899 97.2348 17.1797 96.9971 15.9171L99.6137 15.4962C99.7724 16.1696 100.169 16.7168 100.724 17.1377C101.319 17.5164 102.033 17.7269 102.905 17.7269C103.698 17.7269 104.332 17.5585 104.769 17.2218C105.205 16.8851 105.442 16.4642 105.442 15.8749C105.442 15.5382 105.363 15.2857 105.205 15.0753C105.046 14.8648 104.729 14.6544 104.214 14.486C103.698 14.3176 102.945 14.0651 101.914 13.7705C100.804 13.4759 99.8916 13.1392 99.2174 12.8025C98.5431 12.4658 98.0677 12.0449 97.7899 11.624C97.5127 11.161 97.354 10.6138 97.354 9.98253C97.354 9.18285 97.5522 8.4673 97.988 7.87807C98.4246 7.28884 99.0192 6.82587 99.7724 6.48916C100.526 6.15245 101.438 5.98406 102.469 5.98406C103.46 5.98406 104.372 6.15245 105.165 6.44703C105.958 6.78374 106.593 7.20465 107.068 7.79387C107.544 8.3831 107.861 9.05652 107.94 9.85627L105.324 10.3192C105.244 9.68788 104.927 9.18285 104.451 8.80401C103.936 8.42523 103.302 8.21478 102.508 8.21478C101.755 8.17272 101.121 8.29897 100.645 8.59355C100.169 8.8882 99.9311 9.26698 99.9311 9.77208C99.9311 10.0667 100.01 10.3192 100.209 10.5297C100.407 10.7401 100.764 10.9505 101.279 11.1189C101.794 11.2872 102.588 11.5398 103.618 11.7923C104.729 12.0869 105.601 12.3816 106.236 12.7603C106.87 13.0971 107.346 13.518 107.623 13.9809C107.901 14.4439 108.06 15.0332 108.06 15.7066C108.06 17.0113 107.584 18.0636 106.632 18.7791C105.76 19.5788 104.451 19.9576 102.786 19.9576Z" fill="white"/>
</svg>
